<svg width="100" height="100" viewBox="0 0 100 100" xmlns="http://www.w3.org/2000/svg">
  <!-- 大爱心 -->
  <path d="M50 30 C 40 10, 0 10, 0 40 C 0 65, 50 90, 50 90 C 50 90, 100 65, 100 40 C 100 10, 60 10, 50 30 Z" fill="#ff4d4d" fill-opacity="0.2"/>
  <!-- 小爱心1 -->
  <path d="M25 40 C 20 30, 5 30, 5 45 C 5 55, 25 70, 25 70 C 25 70, 45 55, 45 45 C 45 30, 30 30, 25 40 Z" fill="#ff6666" fill-opacity="0.3"/>
  <!-- 小爱心2 -->
  <path d="M75 40 C 70 30, 55 30, 55 45 C 55 55, 75 70, 75 70 C 75 70, 95 55, 95 45 C 95 30, 80 30, 75 40 Z" fill="#ff6666" fill-opacity="0.3"/>
</svg>